<svg xmlns="http://www.w3.org/2000/svg" xmlns:xlink="http://www.w3.org/1999/xlink" zoomAndPan="magnify" preserveAspectRatio="xMidYMid meet" version="1.0" viewBox="578.04 372.67 283.18 79.36"><defs><g/></defs><g fill="#ffffff" fill-opacity="1"><g transform="translate(573.597625, 434.624998)"><g><path d="M 40.4375 0 L 4.4375 0 L 4.4375 -45.015625 L 40.4375 -45.015625 Z M 14.328125 -9.8125 L 30.546875 -9.8125 L 30.546875 -35.046875 L 14.328125 -35.046875 Z M 14.328125 -9.8125 "/></g></g></g><g fill="#ffffff" fill-opacity="1"><g transform="translate(618.461496, 434.624998)"><g><path d="M 41.546875 0 L 14.25 0 L 14.25 17.40625 L 4.4375 17.40625 L 4.4375 -45.09375 L 41.546875 -45.09375 Z M 14.25 -9.890625 L 32.046875 -9.890625 L 32.046875 -35.125 L 14.25 -35.125 Z M 14.25 -9.890625 "/></g></g></g><g fill="#ffffff" fill-opacity="1"><g transform="translate(664.433108, 434.624998)"><g><path d="M 39.328125 -17.5625 L 14.328125 -17.5625 L 14.328125 -9.25 L 36.953125 -9.25 L 36.953125 0 L 4.4375 0 L 4.4375 -45.015625 L 39.328125 -45.015625 Z M 29.4375 -26.828125 L 29.4375 -35.6875 L 14.328125 -35.6875 L 14.328125 -26.828125 Z M 29.4375 -26.828125 "/></g></g></g><g fill="#ffffff" fill-opacity="1"><g transform="translate(708.189225, 434.624998)"><g><path d="M 42.5625 0 L 32.671875 0 L 32.671875 -35.125 L 14.328125 -35.125 L 14.328125 0 L 4.4375 0 L 4.4375 -45.015625 L 42.5625 -45.015625 Z M 42.5625 0 "/></g></g></g><g fill="#ffffff" fill-opacity="1"><g transform="translate(755.189466, 434.624998)"><g><path d="M 41.375 17.40625 L 8.859375 17.40625 L 8.859375 7.515625 L 31.40625 7.515625 L 31.40625 0 L 4.4375 0 L 4.4375 -45.015625 L 41.375 -45.015625 Z M 31.40625 -9.890625 L 31.40625 -34.96875 L 14.328125 -34.96875 L 14.328125 -9.890625 Z M 31.40625 -9.890625 "/></g></g></g><g fill="#ffffff" fill-opacity="1"><g transform="translate(801.002841, 434.624998)"><g><path d="M 41.140625 0 L 4.4375 0 L 4.4375 -45.015625 L 14.328125 -45.015625 L 14.328125 -9.890625 L 31.25 -9.890625 L 31.25 -45.015625 L 41.140625 -45.015625 Z M 41.140625 0 "/></g></g></g><g fill="#ffffff" fill-opacity="1"><g transform="translate(846.57882, 434.624998)"><g><path d="M 14.640625 -61.953125 L 14.640625 -52.296875 L 4.4375 -52.296875 L 4.4375 -61.953125 Z M 14.328125 0 L 4.4375 0 L 4.4375 -45.09375 L 14.328125 -45.09375 Z M 14.328125 0 "/></g></g></g></svg>